<svg xmlns="http://www.w3.org/2000/svg" xmlns:xlink="http://www.w3.org/1999/xlink" contentStyleType="text/css" data-diagram-type="SEQUENCE" height="298px" preserveAspectRatio="none" style="width:297px;height:298px;background:#FFFFFF;" version="1.1" viewBox="0 0 297 298" width="297px" zoomAndPan="magnify"><defs/><g><g><title>Bob</title><rect fill="#FFFFFF" height="29.1328" style="stroke:#181818;stroke-width:1;" width="10" x="266.3867" y="112.4297"/></g><g><title>Bob</title><rect fill="#FFFFFF" height="29.1328" style="stroke:#181818;stroke-width:1;" width="10" x="266.3867" y="170.6953"/></g><g><title>Alice</title><rect fill="#000000" fill-opacity="0.00000" height="136.5313" width="8" x="20.8335" y="81.2969"/><line style="stroke:#181818;stroke-width:0.5;stroke-dasharray:5,5;" x1="24" x2="24" y1="81.2969" y2="217.8281"/></g><g><title>Bob</title><rect fill="#000000" fill-opacity="0.00000" height="136.5313" width="8" x="267.3867" y="81.2969"/><line style="stroke:#181818;stroke-width:0.5;stroke-dasharray:5,5;" x1="270.8584" x2="270.8584" y1="81.2969" y2="217.8281"/></g><g class="participant participant-head" data-participant="Alice"><text fill="#000000" font-family="sans-serif" font-size="14" lengthAdjust="spacing" textLength="33.667" x="5" y="77.9951">Alice</text><ellipse cx="24.8335" cy="13.5" fill="#E2E2F0" rx="8" ry="8" style="stroke:#181818;stroke-width:0.5;"/><path d="M24.8335,21.5 L24.8335,48.5 M11.8335,29.5 L37.8335,29.5 M24.8335,48.5 L11.8335,63.5 M24.8335,48.5 L37.8335,63.5" fill="none" style="stroke:#181818;stroke-width:0.5;"/></g><g class="participant participant-tail" data-participant="Alice"><text fill="#000000" font-family="sans-serif" font-size="14" lengthAdjust="spacing" textLength="33.667" x="5" y="229.8232">Alice</text><ellipse cx="24.8335" cy="241.625" fill="#E2E2F0" rx="8" ry="8" style="stroke:#181818;stroke-width:0.5;"/><path d="M24.8335,249.625 L24.8335,276.625 M11.8335,257.625 L37.8335,257.625 M24.8335,276.625 L11.8335,291.625 M24.8335,276.625 L37.8335,291.625" fill="none" style="stroke:#181818;stroke-width:0.5;"/></g><g class="participant participant-head" data-participant="Bob"><rect fill="#E2E2F0" height="30.2969" rx="2.5" ry="2.5" style="stroke:#181818;stroke-width:0.5;" width="41.0566" x="250.8584" y="50"/><text fill="#000000" font-family="sans-serif" font-size="14" lengthAdjust="spacing" textLength="27.0566" x="257.8584" y="69.9951">Bob</text></g><g class="participant participant-tail" data-participant="Bob"><rect fill="#E2E2F0" height="30.2969" rx="2.5" ry="2.5" style="stroke:#181818;stroke-width:0.5;" width="41.0566" x="250.8584" y="216.8281"/><text fill="#000000" font-family="sans-serif" font-size="14" lengthAdjust="spacing" textLength="27.0566" x="257.8584" y="236.8232">Bob</text></g><g><title>Bob</title><rect fill="#FFFFFF" height="29.1328" style="stroke:#181818;stroke-width:1;" width="10" x="266.3867" y="112.4297"/></g><g><title>Bob</title><rect fill="#FFFFFF" height="29.1328" style="stroke:#181818;stroke-width:1;" width="10" x="266.3867" y="170.6953"/></g><g class="message" data-participant-1="Alice" data-participant-2="Bob"><polygon fill="#181818" points="254.3867,108.4297,264.3867,112.4297,254.3867,116.4297,258.3867,112.4297" style="stroke:#181818;stroke-width:1;"/><line style="stroke:#181818;stroke-width:1;" x1="24.8335" x2="260.3867" y1="112.4297" y2="112.4297"/><text fill="#000000" font-family="sans-serif" font-size="13" lengthAdjust="spacing" textLength="152.9531" x="31.8335" y="107.3638">Authentication Request</text></g><g class="message" data-participant-1="Bob" data-participant-2="Alice"><polygon fill="#181818" points="35.8335,137.5625,25.8335,141.5625,35.8335,145.5625,31.8335,141.5625" style="stroke:#181818;stroke-width:1;"/><line style="stroke:#181818;stroke-width:1;" x1="29.8335" x2="270.3867" y1="141.5625" y2="141.5625"/><text fill="#000000" font-family="sans-serif" font-size="13" lengthAdjust="spacing" textLength="162.5825" x="41.8335" y="136.4966">Authentication Response</text></g><g class="message" data-participant-1="Alice" data-participant-2="Bob"><polygon fill="#181818" points="254.3867,166.6953,264.3867,170.6953,254.3867,174.6953,258.3867,170.6953" style="stroke:#181818;stroke-width:1;"/><line style="stroke:#181818;stroke-width:1;" x1="24.8335" x2="260.3867" y1="170.6953" y2="170.6953"/><text fill="#000000" font-family="sans-serif" font-size="13" lengthAdjust="spacing" textLength="207.9238" x="31.8335" y="165.6294">Another authentication Request</text></g><g class="message" data-participant-1="Bob" data-participant-2="Alice"><polygon fill="#181818" points="35.8335,195.8281,25.8335,199.8281,35.8335,203.8281,31.8335,199.8281" style="stroke:#181818;stroke-width:1;"/><line style="stroke:#181818;stroke-width:1;" x1="29.8335" x2="270.3867" y1="199.8281" y2="199.8281"/><text fill="#000000" font-family="sans-serif" font-size="13" lengthAdjust="spacing" textLength="217.5532" x="41.8335" y="194.7622">Another authentication Response</text></g><!--SRC=[IqmkoIzISCp9J4xb0fCAkdOAJlb9LWgEfIKPgNabcSc99PdvUGf1gOMbgSKbN8x99PbbYIMf84LSG0nI3zQ8HKTnGNvUSIgNIseYiYOqQ_BoWRgA51A9i0wYqqQNW4wirW80]--></g></svg>