<svg xmlns="http://www.w3.org/2000/svg" xmlns:xlink="http://www.w3.org/1999/xlink" contentStyleType="text/css" data-diagram-type="DESCRIPTION" height="291px" preserveAspectRatio="none" style="width:1300px;height:291px;background:#FFFFFF;" version="1.1" viewBox="0 0 1300 291" width="1300px" zoomAndPan="magnify"><defs/><g><!--cluster School Network--><g class="cluster" data-entity="School Network" data-source-line="1" data-uid="ent0002" id="cluster_School Network"><path d="M47.7624,40.2727 C58.7384,22.7685 69.6897,22.3721 83.1388,37.5998 C97.9367,18.2347 111.7518,14.3104 129.0146,34.7597 C138.806,18.2483 154.296,17.5387 162.8572,35.9517 C176.1002,13.6951 193.6238,14.4111 208.2892,34.4229 C216.7679,15.7137 233.2616,13.3311 244.02,32.2585 C255.6646,10.6908 272.5228,12.6271 285.4792,30.8932 C294.5186,10.1123 307.8733,11.6118 322.5769,24.6867 C336.8669,6 353.7591,9.1473 365.5341,27.596 C380.1147,8.3893 395.8922,8.9996 405.7234,32.107 C419.1958,13.5901 431.2233,13.3705 442.9886,33.7429 C458.6722,14.1923 474.6863,12.8509 490.1136,34.0395 C502.2696,17.98 513.3446,16.2134 525.3043,34.2422 C538.612,15.8897 552.1013,17.5712 564.4254,35.3084 C583.3244,13.4208 598.0899,15.5312 610.0026,41.9061 C613.484,39.4529 616.5539,40.572 616.9837,45.0014 C641.4908,57.4524 642.3681,81.7325 619.0663,96.1308 C645.2101,113.0785 641.5042,130.7382 617.2076,145.7983 C644.5683,160.9001 641.2477,179.9608 617.8437,195.7095 C638.2368,219.4993 637.7876,243.659 603.0026,253.2061 C604.9356,251.6786 606.6103,251.8899 607.4599,254.4017 C596.8514,277.4153 575.5708,276.6716 563.4759,255.8947 C552.7596,275.8851 539.109,272.8495 525.9889,258.5204 C515.8848,279.2021 495.5971,282.7451 483.5865,260.3992 C474.3404,279.7219 459.5812,279.6328 448.9246,261.712 C435.2858,283.0277 414.3225,280.0122 402.6477,259.5372 C396.1329,278.2868 377.5456,279.7163 365.8803,265.2358 C356.4971,281.778 339.879,280.647 329.8402,265.9932 C314.1244,283.3713 293.162,284.9867 282.6833,260.1439 C271.6269,277.2772 252.7214,279.4604 242.662,259.0804 C233.9204,277.0622 215.6623,281.6521 204.3863,261.6331 C192.2349,282.032 178.6862,277.5837 165.8695,262.3523 C149.6566,283.8616 133.3076,277.7828 122.5929,256.7581 C111.7241,272.1142 99.9451,274.5012 88.5944,257.2608 C69.8284,276.034 43.7208,276.1432 35.0026,246.2061 C38.7576,245.0938 41.7973,246.7938 40.7495,251.204 C12.6743,236.9928 7.1879,220.4508 31.5642,197.3015 C6,181.055 7.5573,160.0903 31.9901,144.2452 C10.425,128.5588 15.5396,107.9392 36.8726,96.6538 C10.9843,75.4553 14.0838,51.6343 42.0026,34.9061 C46.4342,33.35 48.4904,36.2911 47.7624,40.2727" fill="none" style="stroke:#181818;stroke-width:1;"/><text fill="#000000" font-family="sans-serif" font-size="14" font-weight="bold" lengthAdjust="spacing" textLength="123.9287" x="260.5382" y="52.9012">School Network</text></g><!--cluster computer1--><g class="cluster" data-entity="computer1" data-source-line="2" data-uid="ent0003" id="cluster_computer1"><polygon fill="none" points="51.0026,79.9061,61.0026,69.9061,594.0026,69.9061,594.0026,227.2061,584.0026,237.2061,51.0026,237.2061,51.0026,79.9061" style="stroke:#181818;stroke-width:1;"/><line style="stroke:#181818;stroke-width:1;" x1="584.0026" x2="594.0026" y1="79.9061" y2="69.9061"/><line style="stroke:#181818;stroke-width:1;" x1="51.0026" x2="584.0026" y1="79.9061" y2="79.9061"/><line style="stroke:#181818;stroke-width:1;" x1="584.0026" x2="584.0026" y1="79.9061" y2="237.2061"/><text fill="#000000" font-family="sans-serif" font-size="14" font-weight="bold" lengthAdjust="spacing" textLength="93.1123" x="271.9464" y="95.9012">Computer-1</text></g><!--cluster Virtual Machine 1--><g class="cluster" data-entity="Virtual Machine 1" data-source-line="3" data-uid="ent0004" id="cluster_Virtual Machine 1"><polygon fill="none" points="75.0026,127.9061,85.0026,117.9061,297.0026,117.9061,297.0026,203.2061,287.0026,213.2061,75.0026,213.2061,75.0026,127.9061" style="stroke:#181818;stroke-width:1;"/><line style="stroke:#181818;stroke-width:1;" x1="287.0026" x2="297.0026" y1="127.9061" y2="117.9061"/><line style="stroke:#181818;stroke-width:1;" x1="75.0026" x2="287.0026" y1="127.9061" y2="127.9061"/><line style="stroke:#181818;stroke-width:1;" x1="287.0026" x2="287.0026" y1="127.9061" y2="213.2061"/><text fill="#000000" font-family="sans-serif" font-size="14" font-weight="bold" lengthAdjust="spacing" textLength="138.8379" x="112.5837" y="143.9012">Virtual Machine 1</text></g><!--entity add1--><g class="entity" data-entity="add1" data-source-line="6" data-uid="ent0006" id="entity_add1"><rect fill="#F1F1F1" height="39.2969" rx="2.5" ry="2.5" style="stroke:#181818;stroke-width:0.5;" width="157.668" x="420.1726" y="157.9061"/><polygon fill="#F1F1F1" points="560.8406,162.9061,560.8406,176.9061,572.8406,176.9061,572.8406,168.9061,566.8406,162.9061,560.8406,162.9061" style="stroke:#181818;stroke-width:0.5;"/><line style="stroke:#181818;stroke-width:0.5;" x1="566.8406" x2="566.8406" y1="162.9061" y2="168.9061"/><line style="stroke:#181818;stroke-width:0.5;" x1="572.8406" x2="566.8406" y1="168.9061" y2="168.9061"/><text fill="#000000" font-family="sans-serif" font-size="14" lengthAdjust="spacing" textLength="127.668" x="430.1726" y="183.9012">Local IP Address 1</text></g><!--entity add11--><g class="entity" data-entity="add11" data-source-line="4" data-uid="ent0005" id="entity_add11"><rect fill="#F1F1F1" height="39.2969" rx="2.5" ry="2.5" style="stroke:#181818;stroke-width:0.5;" width="189.3662" x="91.3226" y="157.9061"/><polygon fill="#F1F1F1" points="263.6888,162.9061,263.6888,176.9061,275.6888,176.9061,275.6888,168.9061,269.6888,162.9061,263.6888,162.9061" style="stroke:#181818;stroke-width:0.5;"/><line style="stroke:#181818;stroke-width:0.5;" x1="269.6888" x2="269.6888" y1="162.9061" y2="168.9061"/><line style="stroke:#181818;stroke-width:0.5;" x1="275.6888" x2="269.6888" y1="168.9061" y2="168.9061"/><text fill="#000000" font-family="sans-serif" font-size="14" lengthAdjust="spacing" textLength="159.3662" x="101.3226" y="183.9012">Sub-Local IP Address 1</text></g><!--entity edge--><g class="entity" data-entity="edge" data-source-line="9" data-uid="ent0007" id="entity_edge"><polygon fill="#F1F1F1" points="720.7626,164.4061,730.7626,154.4061,883.2489,154.4061,883.2489,190.7029,873.2489,200.7029,720.7626,200.7029,720.7626,164.4061" style="stroke:#181818;stroke-width:0.5;"/><line style="stroke:#181818;stroke-width:0.5;" x1="873.2489" x2="883.2489" y1="164.4061" y2="154.4061"/><line style="stroke:#181818;stroke-width:0.5;" x1="720.7626" x2="873.2489" y1="164.4061" y2="164.4061"/><line style="stroke:#181818;stroke-width:0.5;" x1="873.2489" x2="873.2489" y1="164.4061" y2="200.7029"/><text fill="#000000" font-family="sans-serif" font-size="14" lengthAdjust="spacing" textLength="122.4863" x="735.7626" y="187.4012">Router / Gateway</text></g><!--entity isp--><g class="entity" data-entity="isp" data-source-line="10" data-uid="ent0008" id="entity_isp"><polygon fill="#F1F1F1" points="1032.2526,164.4061,1042.2526,154.4061,1283.7565,154.4061,1283.7565,190.7029,1273.7565,200.7029,1032.2526,200.7029,1032.2526,164.4061" style="stroke:#181818;stroke-width:0.5;"/><line style="stroke:#181818;stroke-width:0.5;" x1="1273.7565" x2="1283.7565" y1="164.4061" y2="154.4061"/><line style="stroke:#181818;stroke-width:0.5;" x1="1032.2526" x2="1273.7565" y1="164.4061" y2="164.4061"/><line style="stroke:#181818;stroke-width:0.5;" x1="1273.7565" x2="1273.7565" y1="164.4061" y2="200.7029"/><text fill="#000000" font-family="sans-serif" font-size="14" lengthAdjust="spacing" textLength="211.5039" x="1047.2526" y="187.4012">Internet Service Provider (ISP)</text></g><!--link add1 to edge--><g class="link" data-entity-1="add1" data-entity-2="edge" data-source-line="11" data-uid="lnk9" id="link_add1_edge"><path d="M578.2126,177.5561 C621.9626,177.5561 670.2126,177.5561 714.3426,177.5561" fill="none" id="add1-to-edge" style="stroke:#181818;stroke-width:1;"/><polygon fill="#181818" points="720.3426,177.5561,711.3426,173.5561,715.3426,177.5561,711.3426,181.5561,720.3426,177.5561" style="stroke:#181818;stroke-width:1;"/><text fill="#000000" font-family="sans-serif" font-size="13" lengthAdjust="spacing" textLength="106.1455" x="596.3026" y="170.623">Local IP Address</text></g><!--link add11 to add1--><g class="link" data-entity-1="add11" data-entity-2="add1" data-source-line="12" data-uid="lnk10" id="link_add11_add1"><path d="M280.7626,177.5561 C325.2026,177.5561 371.5626,177.5561 413.8426,177.5561" fill="none" id="add11-to-add1" style="stroke:#181818;stroke-width:1;stroke-dasharray:7,7;"/><polygon fill="#181818" points="419.8426,177.5561,410.8426,173.5561,414.8426,177.5561,410.8426,181.5561,419.8426,177.5561" style="stroke:#181818;stroke-width:1;"/><text fill="#000000" font-family="sans-serif" font-size="13" lengthAdjust="spacing" textLength="103.4414" x="298.9226" y="170.623">Port Forwarding</text></g><!--link edge to isp--><g class="link" data-entity-1="edge" data-entity-2="isp" data-source-line="13" data-uid="lnk11" id="link_edge_isp"><path d="M883.6726,177.5561 C927.6026,177.5561 976.7426,177.5561 1026.0326,177.5561" fill="none" id="edge-to-isp" style="stroke:#181818;stroke-width:1;"/><polygon fill="#181818" points="1032.0326,177.5561,1023.0326,173.5561,1027.0326,177.5561,1023.0326,181.5561,1032.0326,177.5561" style="stroke:#181818;stroke-width:1;"/><text fill="#000000" font-family="sans-serif" font-size="13" lengthAdjust="spacing" textLength="113.6929" x="901.2526" y="170.623">Global IP Address</text></g><!--SRC=[VOunQyCm48Lt_Og7fdPmWzOEWL9eC2J1r91TaQw9gAiBPpccXFptoeexf4F7uttVk-Sw7ZnqwuxC7RQKHfPFZOi28dk2VkMlqv18AgDXUxZvD0NvXNP1qc0xRAmxXaWmUeu1AobyM9VoZs5VhTbbh6xmuhrGt-FMQhqtfWXNTI_z8wY9lghRWdUULc61bKqqskz2aJ_GdDSnnv4IMf9pS8H6-1nyLXxgjdaiUEXFQYf6jImgdl7tVSaDdfPbGGOQbeGtbj6A3_6WYfVzt9NJLSVxE_y7]--></g></svg>